<svg width="118" height="50" viewBox="0 0 118 50" fill="none" xmlns="http://www.w3.org/2000/svg">
<path d="M118 0L91.9946 20.9717H98.4607L86.9427 34.3357H93.724L83 50L108.706 32.0801H101.609L112.964 19.2982H104.847L118 0Z" fill="url(#paint0_radial_5_6)"/>
<path d="M12.6914 14.7832L5.73047 36H0.123047L9.63281 10.4062H13.2012L12.6914 14.7832ZM18.4746 36L11.4961 14.7832L10.9336 10.4062H14.5371L24.0996 36H18.4746ZM18.1582 26.4727V30.6035H4.64062V26.4727H18.1582ZM35.1562 16.9805V20.5664H24.082V16.9805H35.1562ZM26.8242 12.2871H31.8867V30.2695C31.8867 30.8203 31.957 31.2422 32.0977 31.5352C32.25 31.8281 32.4727 32.0332 32.7656 32.1504C33.0586 32.2559 33.4277 32.3086 33.873 32.3086C34.1895 32.3086 34.4707 32.2969 34.7168 32.2734C34.9746 32.2383 35.1914 32.2031 35.3672 32.168L35.3848 35.8945C34.9512 36.0352 34.4824 36.1465 33.9785 36.2285C33.4746 36.3105 32.918 36.3516 32.3086 36.3516C31.1953 36.3516 30.2227 36.1699 29.3906 35.8066C28.5703 35.4316 27.9375 34.834 27.4922 34.0137C27.0469 33.1934 26.8242 32.1152 26.8242 30.7793V12.2871ZM43.1016 20.918V36H38.0215V16.9805H42.7852L43.1016 20.918ZM42.3984 25.8223H40.9922C40.9922 24.498 41.1504 23.2793 41.4668 22.166C41.7949 21.041 42.2695 20.0684 42.8906 19.248C43.5234 18.416 44.3027 17.7715 45.2285 17.3145C46.1543 16.8574 47.2266 16.6289 48.4453 16.6289C49.2891 16.6289 50.0625 16.7578 50.7656 17.0156C51.4688 17.2617 52.0723 17.6543 52.5762 18.1934C53.0918 18.7207 53.4902 19.4121 53.7715 20.2676C54.0527 21.1113 54.1934 22.125 54.1934 23.3086V36H49.1309V23.8711C49.1309 23.0039 49.0137 22.3359 48.7793 21.8672C48.5449 21.3984 48.2109 21.0703 47.7773 20.8828C47.3555 20.6953 46.8457 20.6016 46.248 20.6016C45.5918 20.6016 45.0176 20.7363 44.5254 21.0059C44.0449 21.2754 43.6465 21.6504 43.3301 22.1309C43.0137 22.5996 42.7793 23.1504 42.627 23.7832C42.4746 24.416 42.3984 25.0957 42.3984 25.8223ZM53.7188 25.2422L51.9082 25.4707C51.9082 24.2285 52.0605 23.0742 52.3652 22.0078C52.6816 20.9414 53.1445 20.0039 53.7539 19.1953C54.375 18.3867 55.1426 17.7598 56.0566 17.3145C56.9707 16.8574 58.0254 16.6289 59.2207 16.6289C60.1348 16.6289 60.9668 16.7637 61.7168 17.0332C62.4668 17.291 63.1055 17.707 63.6328 18.2812C64.1719 18.8438 64.582 19.582 64.8633 20.4961C65.1562 21.4102 65.3027 22.5293 65.3027 23.8535V36H60.2227V23.8535C60.2227 22.9746 60.1055 22.3066 59.8711 21.8496C59.6484 21.3809 59.3203 21.0586 58.8867 20.8828C58.4648 20.6953 57.9609 20.6016 57.375 20.6016C56.7656 20.6016 56.2324 20.7246 55.7754 20.9707C55.3184 21.2051 54.9375 21.5332 54.6328 21.9551C54.3281 22.377 54.0996 22.8691 53.9473 23.4316C53.7949 23.9824 53.7188 24.5859 53.7188 25.2422ZM68.4141 26.6836V26.3145C68.4141 24.9199 68.6133 23.6367 69.0117 22.4648C69.4102 21.2812 69.9902 20.2559 70.752 19.3887C71.5137 18.5215 72.4512 17.8477 73.5645 17.3672C74.6777 16.875 75.9551 16.6289 77.3965 16.6289C78.8379 16.6289 80.1211 16.875 81.2461 17.3672C82.3711 17.8477 83.3145 18.5215 84.0762 19.3887C84.8496 20.2559 85.4355 21.2812 85.834 22.4648C86.2324 23.6367 86.4316 24.9199 86.4316 26.3145V26.6836C86.4316 28.0664 86.2324 29.3496 85.834 30.5332C85.4355 31.7051 84.8496 32.7305 84.0762 33.6094C83.3145 34.4766 82.377 35.1504 81.2637 35.6309C80.1504 36.1113 78.873 36.3516 77.4316 36.3516C75.9902 36.3516 74.707 36.1113 73.582 35.6309C72.4688 35.1504 71.5254 34.4766 70.752 33.6094C69.9902 32.7305 69.4102 31.7051 69.0117 30.5332C68.6133 29.3496 68.4141 28.0664 68.4141 26.6836ZM73.4766 26.3145V26.6836C73.4766 27.4805 73.5469 28.2246 73.6875 28.916C73.8281 29.6074 74.0508 30.2168 74.3555 30.7441C74.6719 31.2598 75.082 31.6641 75.5859 31.957C76.0898 32.25 76.7051 32.3965 77.4316 32.3965C78.1348 32.3965 78.7383 32.25 79.2422 31.957C79.7461 31.6641 80.1504 31.2598 80.4551 30.7441C80.7598 30.2168 80.9824 29.6074 81.123 28.916C81.2754 28.2246 81.3516 27.4805 81.3516 26.6836V26.3145C81.3516 25.541 81.2754 24.8145 81.123 24.1348C80.9824 23.4434 80.7539 22.834 80.4375 22.3066C80.1328 21.7676 79.7285 21.3457 79.2246 21.041C78.7207 20.7363 78.1113 20.584 77.3965 20.584C76.6816 20.584 76.0723 20.7363 75.5684 21.041C75.0762 21.3457 74.6719 21.7676 74.3555 22.3066C74.0508 22.834 73.8281 23.4434 73.6875 24.1348C73.5469 24.8145 73.4766 25.541 73.4766 26.3145Z" fill="white"/>
<defs>
<radialGradient id="paint0_radial_5_6" cx="0" cy="0" r="1" gradientUnits="userSpaceOnUse" gradientTransform="translate(100.5 25) rotate(90) scale(34.7973 24.3581)">
<stop stop-color="#FFD88B"/>
<stop offset="1" stop-color="#FFA900"/>
</radialGradient>
</defs>
</svg>
